<?xml version="1.0" encoding="utf-8"?>
<!-- Generator: Adobe Illustrator 24.0.2, SVG Export Plug-In . SVG Version: 6.00 Build 0)  -->
<svg version="1.1" id="Capa_1" xmlns="http://www.w3.org/2000/svg" xmlns:xlink="http://www.w3.org/1999/xlink" x="0px" y="0px"
	 viewBox="0 0 162 133" style="enable-background:new 0 0 162 133;" xml:space="preserve" width="250" height="250">
<style type="text/css">
	.st0{fill:#EDDFEF;}
	.st1{fill:#EEEEEF;}
	.st2{fill:#E7424D;}
	.st3{fill:#E52E2C;}
	.st4{fill:#E95669;}
	.st5{fill:#A71916;}
	.st6{fill:#BC1818;}
	.st7{fill:#CBC4E2;}
	.st8{fill:#033349;}
	.st9{fill:#003751;}
	.st10{fill:#00445B;}
	.st11{fill:#004F69;}
	.st12{fill:#004C66;}
</style>
<g>
	<g>
		<g>
			<path class="st0" d="M31,49.5l76.8,77.2c7.8,7.8,20.4,7.9,28.3,0.2c1.3-1.3,2.3-2.6,3.2-4.1c4.4-7.6,3.4-17.5-3.1-24L59.4,21.5
				L35.5,45L31,49.5z"/>
			<path class="st1" d="M35.5,45l76.3,76.8c7.5,7.5,19.5,7.9,27.4,1c4.4-7.6,3.4-17.5-3.1-24L59.4,21.5L35.5,45z"/>
		</g>
		<g>
			<path class="st0" d="M22.6,49.1L22.6,49.1c2.4,2.4,6.3,2.4,8.7,0.1l27.8-27.4c2.4-2.4,2.4-6.2,0-8.6l0,0
				c-2.4-2.4-6.3-2.4-8.7-0.1L22.7,40.5C20.3,42.9,20.2,46.7,22.6,49.1z"/>
			<path class="st1" d="M28.6,43.3L28.6,43.3c2.4,2.4,6.3,2.4,8.7,0.1l21.9-21.6c2.4-2.4,2.4-6.2,0-8.6l0,0
				c-2.4-2.4-6.3-2.4-8.7-0.1L28.6,34.6C26.2,37,26.2,40.9,28.6,43.3z"/>
		</g>
		<g>
			<g>
				<path class="st2" d="M36.7,43.9l76.4,76.9c3.9,3.9,9.9,4.6,14.5,2c0.9-0.5,1.8-1.1,2.5-1.9c4.7-4.7,4.7-12.2,0.1-17L53.7,27
					L36.7,43.9z"/>
			</g>
			<g>
				<path class="st3" d="M36.7,43.9l76.4,76.9c3.9,3.9,9.9,4.6,14.5,2c2.7-4.6,2-10.5-1.9-14.4L49.2,31.5L36.7,43.9z"/>
			</g>
		</g>
		<g>
			<g>
				<path class="st4" d="M68.8,47.6L68.8,47.6c1-1,1-2.6,0-3.6l-4.6-4.6c-1-1-2.6-1-3.6,0l0,0c-1,1-1,2.6,0,3.6l4.6,4.6
					C66.2,48.5,67.8,48.5,68.8,47.6z"/>
			</g>
			<g>
				<path class="st4" d="M59.6,38.3L59.6,38.3c1-1,1-2.6,0-3.6l0,0c-1-1-2.6-1-3.6,0l0,0c-1,1-1,2.6,0,3.6l0,0
					C57,39.3,58.6,39.3,59.6,38.3z"/>
			</g>
		</g>
		<g>
			<g>
				<ellipse transform="matrix(0.2731 -0.962 0.962 0.2731 -6.4342 147.0181)" class="st5" cx="94.1" cy="77.8" rx="5.9" ry="5.9"/>
			</g>
			<g>
				<path class="st6" d="M90.4,79.9c1.5,1.5,3.8,1.5,5.3,0c1.5-1.4,1.5-3.8,0-5.3c-1.5-1.5-3.8-1.5-5.3,0C89,76,89,78.4,90.4,79.9z"
					/>
			</g>
		</g>
		<g>
			<g>
				<path class="st5" d="M62.3,63.5c1.8,1.9,4.9,1.9,6.7,0c1.9-1.8,1.9-4.8,0-6.7c-1.8-1.9-4.9-1.9-6.7,0
					C60.5,58.7,60.4,61.7,62.3,63.5z"/>
			</g>
			<g>
				<path class="st6" d="M62.8,61.9c1.2,1.2,3.1,1.2,4.3,0s1.2-3.1,0-4.2c-1.2-1.2-3.1-1.2-4.3,0S61.6,60.7,62.8,61.9z"/>
			</g>
		</g>
		<g>
			<g>
				<ellipse transform="matrix(0.2731 -0.962 0.962 0.2731 -21.9198 191.2537)" class="st5" cx="115.6" cy="110.1" rx="5" ry="5"/>
			</g>
			<g>
				<path class="st6" d="M112.5,111.9c1.2,1.2,3.3,1.3,4.5,0c1.3-1.2,1.3-3.2,0-4.5c-1.2-1.2-3.3-1.3-4.5,0
					C111.3,108.6,111.3,110.7,112.5,111.9z"/>
			</g>
		</g>
		<g>
			<g>
				
					<ellipse transform="matrix(0.2745 -0.9616 0.9616 0.2745 -15.2655 97.3833)" class="st5" cx="56.9" cy="58.8" rx="2.9" ry="2.9"/>
			</g>
			<g>
				<path class="st6" d="M55.1,59.8c0.7,0.7,1.9,0.7,2.6,0c0.7-0.7,0.7-1.9,0-2.6c-0.7-0.7-1.9-0.7-2.6,0
					C54.4,57.9,54.4,59.1,55.1,59.8z"/>
			</g>
		</g>
		<g>
			<g>
				
					<ellipse transform="matrix(0.2733 -0.9619 0.9619 0.2733 -12.5382 183.5175)" class="st5" cx="115.2" cy="100.1" rx="3.1" ry="3.1"/>
			</g>
			<g>
				<path class="st6" d="M113.3,101.2c0.8,0.8,2,0.8,2.8,0c0.8-0.8,0.8-2,0-2.8c-0.8-0.8-2-0.8-2.8,0
					C112.5,99.1,112.5,100.4,113.3,101.2z"/>
			</g>
		</g>
		<polygon class="st7" points="59.4,21.5 31,49.5 35.5,54 63.8,25.9 		"/>
	</g>
	<g>
		<g>
			<path class="st8" d="M11.3,29.6l7.4,7.5l3.7,3.7l28.4-28l-3.7-3.7l-7.4-7.5C38,0,35.4,0,33.8,1.6L11.3,23.8
				C9.7,25.4,9.7,28,11.3,29.6z"/>
		</g>
		<g>
			<path class="st9" d="M11.3,29.6l7.4,7.5l28.4-28l-7.4-7.5C38,0,35.4,0,33.8,1.6L11.3,23.8C9.7,25.4,9.7,28,11.3,29.6z"/>
		</g>
		<g>
			<g>
				<polygon class="st10" points="29.3,6.1 39.6,16.4 43.3,20.1 45.1,18.4 41.4,14.7 31.1,4.3 				"/>
			</g>
			<g>
				<polygon class="st10" points="14,21.1 24.4,31.5 28,35.2 29.8,33.5 26.1,29.8 26.1,29.8 15.8,19.4 				"/>
			</g>
			<g>
				<polygon class="st10" points="21.7,13.6 32,24 35.7,27.7 37.4,25.9 33.8,22.2 23.4,11.8 				"/>
			</g>
			<g>
				<polygon class="st11" points="29.3,6.1 39.6,16.4 41.4,14.7 31.1,4.3 				"/>
				<polygon class="st11" points="23.4,11.8 21.7,13.6 32,24 33.8,22.2 				"/>
				<polygon class="st11" points="14,21.1 24.4,31.5 26.1,29.8 15.8,19.4 				"/>
			</g>
		</g>
		<path class="st12" d="M41.4,8.4L41.4,8.4c0.8-0.8,0.8-2,0-2.8l-2.7-2.8c-0.8-0.8-2-0.8-2.8,0l0,0c-0.8,0.8-0.8,2,0,2.8l2.7,2.8
			C39.3,9.2,40.6,9.2,41.4,8.4z"/>
	</g>
</g>
<g>
	<g>
		<g>
			<path class="st0" d="M101.7,21.3L25.2,98.7c-7.8,7.8-7.7,20.5,0.1,28.3c1.3,1.3,2.7,2.3,4.2,3.2c7.6,4.4,17.5,3.3,24-3.3
				L130,49.4l-23.7-23.6L101.7,21.3z"/>
			<path class="st1" d="M106.3,25.8l-76.1,77c-7.5,7.6-7.7,19.6-0.7,27.4c7.6,4.4,17.5,3.3,24-3.3L130,49.4L106.3,25.8z"/>
		</g>
		<g>
			<path class="st0" d="M102,12.9L102,12.9c-2.4,2.4-2.4,6.3,0,8.7l27.7,27.6c2.4,2.4,6.3,2.4,8.6,0l0,0c2.4-2.4,2.4-6.3,0-8.7
				l-27.7-27.6C108.2,10.5,104.4,10.5,102,12.9z"/>
			<path class="st1" d="M107.9,18.8L107.9,18.8c-2.4,2.4-2.4,6.3,0,8.7l21.7,21.7c2.4,2.4,6.3,2.4,8.6,0l0,0c2.4-2.4,2.4-6.3,0-8.7
				l-21.7-21.7C114.2,16.4,110.3,16.4,107.9,18.8z"/>
		</g>
		<g>
			<g>
				<path class="st2" d="M107.4,26.9L31.1,104c-3.9,3.9-4.5,9.9-1.9,14.5c0.5,0.9,1.2,1.8,1.9,2.5c4.7,4.7,12.3,4.6,17-0.1
					l76.2-77.1L107.4,26.9z"/>
			</g>
			<g>
				<path class="st3" d="M107.4,26.9L31.1,104c-3.9,3.9-4.5,9.9-1.9,14.5c4.6,2.6,10.5,1.9,14.4-2l76.2-77.1L107.4,26.9z"/>
			</g>
		</g>
		<g>
			<g>
				<path class="st4" d="M104,59.1L104,59.1c1,1,2.6,1,3.6,0l4.6-4.6c1-1,1-2.6,0-3.6l0,0c-1-1-2.6-1-3.6,0l-4.6,4.6
					C103,56.5,103,58.1,104,59.1z"/>
			</g>
			<g>
				<path class="st4" d="M113.2,49.8L113.2,49.8c1,1,2.6,1,3.6,0l0,0c1-1,1-2.6,0-3.6l0,0c-1-1-2.6-1-3.6,0l0,0
					C112.2,47.2,112.2,48.8,113.2,49.8z"/>
			</g>
		</g>
		<g>
			<g>
				
					<ellipse transform="matrix(0.2649 -0.9643 0.9643 0.2649 -27.2072 133.5356)" class="st5" cx="74" cy="84.6" rx="5.9" ry="5.9"/>
			</g>
			<g>
				<path class="st6" d="M71.9,81c-1.5,1.5-1.4,3.8,0,5.3c1.5,1.5,3.8,1.4,5.3,0c1.5-1.5,1.4-3.8,0-5.3C75.7,79.5,73.3,79.5,71.9,81
					z"/>
			</g>
		</g>
		<g>
			<g>
				<path class="st5" d="M88,52.7c-1.8,1.9-1.8,4.9,0,6.7c1.9,1.8,4.8,1.8,6.7,0c1.8-1.9,1.8-4.9,0-6.7C92.8,50.8,89.8,50.9,88,52.7
					z"/>
			</g>
			<g>
				<path class="st6" d="M89.6,53.2c-1.2,1.2-1.2,3.1,0,4.3c1.2,1.2,3.1,1.2,4.2,0c1.2-1.2,1.2-3.1,0-4.3C92.7,52,90.8,52,89.6,53.2
					z"/>
			</g>
		</g>
		<g>
			<g>
				<ellipse transform="matrix(0.265 -0.9643 0.9643 0.265 -71.8952 118.5281)" class="st5" cx="41.8" cy="106.4" rx="5" ry="5"/>
			</g>
			<g>
				<path class="st6" d="M40,103.4c-1.2,1.3-1.2,3.3,0,4.5c1.2,1.2,3.3,1.2,4.5,0c1.2-1.3,1.2-3.3,0-4.5
					C43.2,102.1,41.2,102.1,40,103.4z"/>
			</g>
		</g>
		<g>
			<g>
				
					<ellipse transform="matrix(0.2663 -0.9639 0.9639 0.2663 22.3685 123.9757)" class="st5" cx="92.6" cy="47.3" rx="2.9" ry="2.9"/>
			</g>
			<g>
				<path class="st6" d="M91.6,45.5c-0.7,0.7-0.7,1.9,0,2.6c0.7,0.7,1.9,0.7,2.6,0c0.7-0.7,0.7-1.9,0-2.6
					C93.5,44.8,92.3,44.8,91.6,45.5z"/>
			</g>
		</g>
		<g>
			<g>
				
					<ellipse transform="matrix(0.2651 -0.9642 0.9642 0.2651 -64.0197 127.8578)" class="st5" cx="51.9" cy="105.9" rx="3.1" ry="3.1"/>
			</g>
			<g>
				<path class="st6" d="M50.8,104c-0.8,0.8-0.8,2,0,2.8c0.8,0.8,2,0.8,2.8,0c0.8-0.8,0.8-2,0-2.8C52.8,103.3,51.5,103.3,50.8,104z"
					/>
			</g>
		</g>
		<polygon class="st7" points="130,49.4 101.7,21.3 97.3,25.8 125.5,53.9 		"/>
	</g>
	<g>
		<g>
			<path class="st8" d="M121.4,1.4L114,8.9l-3.7,3.7l28.2,28.1l3.7-3.7l7.4-7.5c1.6-1.6,1.6-4.2,0-5.8L127.2,1.4
				C125.6-0.2,123-0.2,121.4,1.4z"/>
		</g>
		<g>
			<path class="st9" d="M121.4,1.4L114,8.9L142.2,37l7.4-7.5c1.6-1.6,1.6-4.2,0-5.8L127.2,1.4C125.6-0.2,123-0.2,121.4,1.4z"/>
		</g>
		<g>
			<g>
				<polygon class="st10" points="145.1,19.2 134.8,29.7 131.2,33.4 133,35.1 136.6,31.4 146.9,21 				"/>
			</g>
			<g>
				<polygon class="st10" points="129.9,4.1 119.6,14.5 116,18.2 117.7,20 121.4,16.3 121.4,16.3 131.7,5.9 				"/>
			</g>
			<g>
				<polygon class="st10" points="137.5,11.7 127.2,22.1 123.6,25.8 125.3,27.6 129,23.9 139.3,13.4 				"/>
			</g>
			<g>
				<polygon class="st11" points="145.1,19.2 134.8,29.7 136.6,31.4 146.9,21 				"/>
				<polygon class="st11" points="139.3,13.4 137.5,11.7 127.2,22.1 129,23.9 				"/>
				<polygon class="st11" points="129.9,4.1 119.6,14.5 121.4,16.3 131.7,5.9 				"/>
			</g>
		</g>
		<path class="st12" d="M142.9,31.3L142.9,31.3c0.8,0.8,2,0.8,2.8,0l2.7-2.7c0.8-0.8,0.8-2,0-2.8l0,0c-0.8-0.8-2-0.8-2.8,0l-2.7,2.7
			C142.1,29.3,142.1,30.5,142.9,31.3z"/>
	</g>
</g>
</svg>
